<?xml version="1.0" encoding="UTF-8" standalone="no"?>
<!DOCTYPE svg PUBLIC "-//W3C//DTD SVG 1.1//EN" "http://www.w3.org/Graphics/SVG/1.1/DTD/svg11.dtd">
<svg version="1.1" xmlns="http://www.w3.org/2000/svg" xmlns:xlink="http://www.w3.org/1999/xlink" preserveAspectRatio="xMidYMid meet" viewBox="128.4553483807655 132.47348484848473 223.1095757701428 237.3326035585214" width="219.11" height="233.33"><defs><path d="" id="b55K5yBwd"></path><path d="M200.21 136.31L199.21 138.56L197.71 142.31L197.71 148.31L199.21 153.31L232.61 152.06L232.61 177.56L225.46 178.31L225.46 193.56L220.46 193.56L220.46 202.81L216.21 202.81L216.21 229.81L211.96 235.56L184.46 235.56L178.71 227.56L149.21 227.56L149.21 235.56L129.46 235.56L129.46 275.81L148.46 275.81L149.21 281.81L163.21 281.81L163.21 275.81L181.96 275.81L184.46 269.81L207.21 270.81L220.46 275.81L237.46 278.56L258.96 278.56L272.46 275.81L279.96 273.81L284.46 269.81L287.46 273.06L289.21 279.31L286.21 279.31L280.71 281.81L277.96 285.81L287.46 306.56L295.21 306.56L310.71 306.56L320 304.81L330.96 298.56L343.96 289.81L336.71 269.06L330.96 267.56L322.71 267.56L321.96 264.06L315.21 252.31L310.71 245.81L303.21 242.31L285.46 235.56L269.46 228.56L269.46 208.06L267.71 208.06L267.71 201.81L264.21 201.81L264.21 193.56L257.21 192.31L257.21 177.56L249.71 177.56L250.46 151.06L283.21 151.06L285.46 149.81L286.21 141.56L285.46 135.56L252.71 137.81" id="bb7WK2VhS"></path><path d="M252.87 137.97C246.87 131.97 239.96 131.97 232.12 137.97L200.37 136.47" id="f3osZ1qkUg"></path><path d="" id="a22uEjFU2i"></path><path d="M322.93 303.89C347.27 327.22 354.27 345.05 343.96 357.39C333.64 369.72 321.74 369.94 308.25 358.05" id="cNDhiOm5S"></path><path d="M323.27 304.55C304.05 328.33 299.16 346.28 308.6 358.39" id="a1d3aWcsk"></path></defs><g><g><g><use xlink:href="#b55K5yBwd" opacity="1" fill-opacity="0" stroke="#000000" stroke-width="1" stroke-opacity="1"></use></g></g><g><use xlink:href="#bb7WK2VhS" opacity="1" fill="#5c5c5c" fill-opacity="1"></use><g><use xlink:href="#bb7WK2VhS" opacity="1" fill-opacity="0" stroke="#000000" stroke-width="1" stroke-opacity="1"></use></g></g><g><use xlink:href="#f3osZ1qkUg" opacity="1" fill="#5c5c5c" fill-opacity="1"></use><g><use xlink:href="#f3osZ1qkUg" opacity="1" fill-opacity="0" stroke="#000000" stroke-width="1" stroke-opacity="1"></use></g></g><g><g><use xlink:href="#a22uEjFU2i" opacity="1" fill-opacity="0" stroke="#000000" stroke-width="1" stroke-opacity="1"></use></g></g><g><use xlink:href="#cNDhiOm5S" opacity="1" fill="#65bec0" fill-opacity="1"></use><g><use xlink:href="#cNDhiOm5S" opacity="1" fill-opacity="0" stroke="#000000" stroke-width="1" stroke-opacity="1"></use></g></g><g><use xlink:href="#a1d3aWcsk" opacity="1" fill="#65bec0" fill-opacity="1"></use><g><use xlink:href="#a1d3aWcsk" opacity="1" fill-opacity="0" stroke="#000000" stroke-width="1" stroke-opacity="1"></use></g></g></g></svg>